<?xml version="1.0" standalone="no"?>
<!DOCTYPE svg PUBLIC "-//W3C//DTD SVG 20010904//EN"
 "http://www.w3.org/TR/2001/REC-SVG-20010904/DTD/svg10.dtd">
<svg version="1.0" xmlns="http://www.w3.org/2000/svg"
 width="1024.000000pt" height="1024.000000pt" viewBox="0 0 1024.000000 1024.000000"
 preserveAspectRatio="xMidYMid meet">
<metadata>
Created by potrace 1.16, written by Peter Selinger 2001-2019
</metadata>

  <!-- White background -->
  <rect width="100%" height="100%" fill="#FFFFFF" />

  <g transform="translate(0.000000,1024.000000) scale(0.100000,-0.100000)"
  fill="#000000" stroke="none">
    <path d="M6085 9555 c-38 -7 -117 -29 -175 -49 -58 -20 -148 -50 -200 -67 -52
    -17 -133 -44 -180 -61 -289 -103 -284 -101 -430 -102 l-135 -1 -140 52 c-156
    57 -317 111 -535 179 -176 55 -287 67 -368 40 -65 -22 -152 -99 -181 -160 -36
    -78 -117 -372 -187 -681 -19 -82 -41 -167 -49 -188 -17 -42 -13 -57 13 -57 9
    0 52 -11 95 -25 167 -53 589 -130 906 -165 398 -44 731 -48 1051 -16 521 54
    764 92 1007 156 123 33 163 48 163 63 0 5 -25 114 -56 241 -63 264 -167 622
    -196 679 -10 21 -43 63 -71 92 -80 82 -169 101 -332 70z"/>
    <path d="M3275 8024 c-27 -7 -121 -25 -208 -39 -286 -46 -648 -140 -821 -212
    -113 -48 -166 -85 -192 -135 -30 -57 17 -127 114 -170 84 -38 392 -118 602
    -158 118 -22 222 -42 230 -45 8 -3 105 -16 215 -30 110 -14 270 -35 355 -46
    350 -45 811 -83 1217 -100 282 -12 534 -7 1028 21 293 17 650 53 1140 116 367
    46 808 135 1027 205 267 86 291 204 64 314 -138 67 -592 188 -921 245 -256 45
    -264 46 -278 26 -30 -41 -424 -160 -662 -200 -442 -76 -907 -107 -1316 -89
    -342 16 -746 64 -950 114 -146 35 -428 129 -515 170 -70 33 -62 32 -129 13z"/>
    <path d="M3285 6929 c-49 -33 -106 -76 -126 -96 -86 -83 -123 -202 -121 -393
    1 -169 25 -252 108 -367 15 -21 13 -23 -53 -66 -202 -131 -487 -417 -964 -966
    -126 -147 -314 -384 -338 -429 -8 -15 -7 -22 2 -30 23 -19 100 -54 211 -97
    180 -70 256 -101 341 -140 105 -48 150 -69 335 -151 210 -93 583 -278 598
    -296 10 -12 3 -20 -37 -49 -27 -19 -114 -95 -192 -169 -194 -183 -235 -220
    -371 -334 -70 -58 -118 -105 -118 -116 0 -31 76 -133 156 -210 100 -97 836
    -840 1069 -1080 343 -353 1140 -1153 1219 -1222 76 -68 80 -70 119 -64 22 4
    61 22 86 41 25 18 237 228 470 467 490 500 907 922 1559 1579 254 256 462 470
    462 475 0 18 -80 93 -173 163 -51 38 -122 96 -159 128 -410 359 -436 383 -422
    389 6 3 58 30 115 60 291 154 966 457 1314 588 103 39 102 38 83 78 -20 43
    -377 461 -647 760 -234 258 -453 469 -705 679 -5 4 8 46 28 93 87 202 89 386
    5 566 -42 91 -72 125 -149 175 -37 23 -76 55 -87 69 -20 25 -24 26 -130 26
    l-110 0 -6 -82 c-12 -147 -18 -134 65 -143 94 -9 124 -22 175 -78 122 -133
    104 -427 -37 -605 -47 -58 -143 -123 -221 -148 l-57 -19 -12 -110 c-6 -60 -18
    -139 -26 -175 -8 -36 -23 -106 -34 -157 -32 -149 -101 -394 -126 -448 -100
    -211 -556 -628 -811 -742 -116 -51 -275 -85 -434 -90 -179 -7 -260 8 -429 76
    -128 52 -180 85 -365 226 -274 211 -462 437 -529 636 -14 41 -36 137 -50 214
    -14 77 -30 156 -36 175 -6 19 -22 103 -35 185 -36 214 -35 211 -103 230 -88
    26 -143 58 -200 119 -93 98 -143 237 -143 396 0 155 40 244 129 293 39 21 63
    26 135 28 l87 3 0 101 0 102 -46 7 c-26 3 -77 6 -113 5 -64 0 -69 -2 -156 -60z
    m482 -2206 c26 -20 91 -75 143 -123 322 -293 537 -443 765 -533 128 -50 226
    -68 410 -74 147 -5 170 -3 290 22 162 34 243 65 395 151 167 95 343 226 566
    425 124 110 154 133 192 144 20 6 22 3 22 -27 0 -18 -10 -53 -21 -78 -20 -42
    -44 -108 -189 -530 -32 -91 -77 -214 -102 -275 -25 -60 -71 -177 -102 -260
    -75 -196 -142 -359 -171 -415 -12 -25 -34 -78 -49 -118 -14 -40 -34 -92 -45
    -115 -48 -106 -86 -200 -118 -292 -19 -55 -41 -112 -49 -126 -7 -15 -27 -62
    -43 -106 -89 -241 -203 -537 -288 -753 -25 -63 -87 -236 -138 -385 -51 -148
    -100 -283 -109 -300 l-16 -30 0 28 c0 16 -16 67 -36 115 -20 48 -47 118 -60
    155 -32 95 -119 324 -165 437 -35 87 -164 427 -244 645 -18 50 -67 176 -109
    282 -68 173 -134 363 -150 436 -5 20 -3 27 8 27 8 0 16 -6 19 -12 8 -23 71 20
    200 136 68 61 135 124 148 139 l24 28 40 -53 c22 -29 69 -83 103 -120 l64 -67
    -12 -73 c-6 -40 -22 -127 -35 -193 -13 -66 -36 -183 -50 -260 -14 -77 -40
    -193 -57 -257 l-30 -117 20 -26 c11 -14 48 -97 82 -183 34 -86 76 -193 95
    -237 51 -123 105 -263 126 -332 25 -80 43 -82 64 -5 30 109 53 177 95 287 22
    61 54 146 70 190 51 144 100 259 121 289 22 29 22 30 6 100 -52 225 -119 543
    -142 670 l-26 148 62 66 c35 37 70 73 80 80 10 7 28 30 40 52 l23 40 49 -56
    c54 -60 274 -237 289 -232 6 2 26 29 46 61 42 69 48 58 -106 180 -229 179
    -463 388 -586 525 l-47 52 -101 -92 c-55 -51 -140 -130 -188 -174 -49 -45
    -114 -101 -146 -125 -33 -24 -99 -78 -149 -119 -49 -42 -122 -101 -162 -133
    -39 -32 -74 -65 -77 -73 -15 -38 -44 17 -151 286 -42 107 -99 249 -126 315
    -27 66 -72 183 -100 260 -28 77 -67 183 -86 235 -19 52 -57 163 -83 245 -27
    83 -56 168 -64 190 -32 85 -8 98 71 38z m3010 -1463 c133 -60 98 -269 -45
    -270 -77 0 -141 57 -149 134 -8 69 23 116 94 142 49 17 50 17 100 -6z m-3180
    -27 c46 -34 56 -58 50 -116 -14 -118 -126 -171 -220 -105 -68 48 -75 143 -16
    204 56 58 124 64 186 17z"/>
    <path d="M6219 6945 c-8 -8 -466 -45 -556 -45 -78 0 -83 -1 -83 -21 0 -24 -23
    -58 -91 -136 -45 -52 -65 -84 -89 -147 -10 -26 -12 -27 -28 -14 -51 46 -204
    84 -287 72 -74 -10 -167 -41 -209 -69 l-37 -25 -8 23 c-33 86 -48 109 -165
    256 -37 46 -56 61 -75 61 -36 1 -267 17 -453 31 l-157 13 -114 -115 c-82 -83
    -120 -130 -141 -174 l-29 -60 -71 3 c-38 2 -94 1 -123 -3 -50 -6 -53 -8 -62
    -43 -6 -20 -13 -63 -17 -95 -9 -78 2 -86 124 -87 l92 0 0 -48 c0 -68 34 -192
    70 -260 69 -129 206 -253 333 -300 152 -57 264 -62 407 -16 231 72 420 302
    437 531 l6 73 46 29 c71 46 115 61 179 61 72 0 111 -13 180 -58 52 -35 52 -35
    52 -87 0 -106 71 -275 155 -372 104 -119 311 -212 471 -213 75 0 194 34 286
    82 100 52 209 156 255 243 49 94 86 224 81 289 l-3 56 107 0 c130 0 131 1 114
    112 -7 43 -15 80 -17 83 -11 10 -165 26 -204 21 l-40 -6 -34 66 c-33 63 -213
    269 -251 286 -18 8 -45 10 -51 3z m-167 -176 c125 -26 222 -106 295 -244 37
    -69 38 -72 38 -180 0 -104 -2 -114 -32 -175 -49 -99 -111 -163 -201 -207 -73
    -37 -80 -38 -182 -38 -97 0 -110 2 -170 31 -110 52 -192 150 -230 273 -24 75
    -25 134 -5 220 21 86 58 151 120 210 105 99 233 138 367 110z m-1618 -34 c67
    -34 173 -141 204 -208 44 -95 53 -227 22 -330 -16 -55 -97 -155 -160 -199 -91
    -63 -150 -81 -255 -76 -81 4 -97 8 -163 42 -87 46 -158 120 -202 210 -77 156
    -38 359 92 482 95 90 161 114 303 111 87 -3 107 -7 159 -32z"/>
    <path d="M4884 5588 c-12 -19 19 -121 49 -160 43 -57 83 -77 158 -84 142 -13
    279 85 279 198 0 57 -8 61 -81 42 -65 -17 -175 -15 -337 4 -35 4 -66 4 -68 0z"/>
    <path d="M4695 5043 c-64 -9 -84 -81 -40 -145 l25 -37 427 0 c274 0 433 4 445
    10 11 6 26 26 34 46 14 31 13 38 -3 71 -10 20 -29 42 -43 49 -19 10 -123 12
    -420 11 -217 0 -408 -3 -425 -5z"/>
    <path d="M6291 1344 c-17 -14 -36 -43 -42 -64 -10 -33 -9 -44 9 -82 34 -70 92
    -94 152 -63 46 24 70 62 70 113 0 38 -5 50 -39 83 -49 49 -102 54 -150 13z"/>
  </g>
</svg>

